<svg width="512" height="497" viewBox="0 0 512 497" fill="none" xmlns="http://www.w3.org/2000/svg">
<path d="M48 241H464" stroke="#89C5CC" stroke-width="32" stroke-linecap="round" stroke-linejoin="round"/>
<path d="M416 129C416 120.163 408.837 113 400 113C391.163 113 384 120.163 384 129V353C384 361.837 391.163 369 400 369C408.837 369 416 361.837 416 353V129Z" stroke="#89C5CC" stroke-width="32" stroke-linecap="round" stroke-linejoin="round"/>
<path d="M128 129C128 120.163 120.837 113 112 113C103.163 113 96 120.163 96 129V353C96 361.837 103.163 369 112 369C120.837 369 128 361.837 128 353V129Z" stroke="#89C5CC" stroke-width="32" stroke-linecap="round" stroke-linejoin="round"/>
<path d="M48 185C48 180.582 44.4183 177 40 177C35.5817 177 32 180.582 32 185V297C32 301.418 35.5817 305 40 305C44.4183 305 48 301.418 48 297V185Z" stroke="#89C5CC" stroke-width="32" stroke-linecap="round" stroke-linejoin="round"/>
<path d="M480 185C480 180.582 476.418 177 472 177C467.582 177 464 180.582 464 185V297C464 301.418 467.582 305 472 305C476.418 305 480 301.418 480 297V185Z" stroke="#89C5CC" stroke-width="32" stroke-linecap="round" stroke-linejoin="round"/>
</svg>
